<svg  viewBox="0 0 21 16" fill="none" xmlns="http://www.w3.org/2000/svg">
<path d="M1.89999 7.1H8.89999C9.19999 6.3 9.59999 5.6 10.2 5.1H1.89999C1.29999 5.1 0.899994 5.6 0.899994 6.1C0.899994 6.6 1.29999 7.1 1.89999 7.1Z" fill="white"/>
<path d="M1.89999 2.1H15.9C16.5 2.1 16.9 1.7 16.9 1.1C16.9 0.599998 16.5 0.0999985 15.9 0.0999985H1.89999C1.29999 0.0999985 0.899994 0.599998 0.899994 1.1C0.899994 1.6 1.29999 2.1 1.89999 2.1Z" fill="white"/>
<path d="M8.79999 10.1H1.89999C1.29999 10.1 0.899994 10.6 0.899994 11.1C0.899994 11.7 1.29999 12.1 1.89999 12.1H9.99999C9.49999 11.5 9.09999 10.8 8.79999 10.1Z" fill="white"/>
<path fill-rule="evenodd" clip-rule="evenodd" d="M15.6 12C15 12.4 14.3 12.6 13.5 12.6C11.3 12.6 9.60001 10.9 9.60001 8.7C9.60001 6.5 11.3 4.8 13.5 4.8C15.7 4.8 17.4 6.5 17.4 8.7C17.4 9.5 17.2 10.2 16.8 10.8L20.2 14.2C20.5 14.5 20.5 15.1 20.2 15.4C19.9 15.7 19.4 15.7 19 15.4L15.6 12ZM15.5 8.7C15.5 9.8 14.6 10.6 13.6 10.6C12.6 10.6 11.7 9.7 11.7 8.7C11.7 7.7 12.6 6.8 13.6 6.8C14.6 6.8 15.5 7.7 15.5 8.7Z" fill="white"/>
</svg>
