<?xml version="1.0" encoding="UTF-8" standalone="no"?>
<svg
   xmlns:dc="http://purl.org/dc/elements/1.1/"
   xmlns:cc="http://creativecommons.org/ns#"
   xmlns:rdf="http://www.w3.org/1999/02/22-rdf-syntax-ns#"
   xmlns:svg="http://www.w3.org/2000/svg"
   xmlns="http://www.w3.org/2000/svg"
   xmlns:sodipodi="http://sodipodi.sourceforge.net/DTD/sodipodi-0.dtd"
   xmlns:inkscape="http://www.inkscape.org/namespaces/inkscape"
   width="29"
   height="27"
   viewBox="0 0 29 27"
   fill="none"
   version="1.1"
   id="svg4538"
   sodipodi:docname="map-s57.svg"
   inkscape:version="0.92.3 (2405546, 2018-03-11)">
  <metadata
     id="metadata4544">
    <rdf:RDF>
      <cc:Work
         rdf:about="">
        <dc:format>image/svg+xml</dc:format>
        <dc:type
           rdf:resource="http://purl.org/dc/dcmitype/StillImage" />
        <dc:title></dc:title>
      </cc:Work>
    </rdf:RDF>
  </metadata>
  <defs
     id="defs4542" />
  <sodipodi:namedview
     pagecolor="#ffffff"
     bordercolor="#666666"
     borderopacity="1"
     objecttolerance="10"
     gridtolerance="10"
     guidetolerance="10"
     inkscape:pageopacity="0"
     inkscape:pageshadow="2"
     inkscape:window-width="1920"
     inkscape:window-height="1017"
     id="namedview4540"
     showgrid="false"
     inkscape:zoom="31.407407"
     inkscape:cx="13.661981"
     inkscape:cy="11.37087"
     inkscape:window-x="1912"
     inkscape:window-y="-8"
     inkscape:window-maximized="1"
     inkscape:current-layer="svg4538" />
  <path
     d="M13.2583 4.09097C13.4274 3.96814 13.6592 3.96815 13.8283 4.10042L17.0585 6.50972C17.2276 6.63254 17.4594 6.63254 17.6285 6.50972L20.8587 4.10042C21.0278 3.96815 21.2596 3.96814 21.4287 4.09097L24.789 6.60418C24.8879 6.67976 24.9544 6.78364 24.9734 6.90646L26.6758 17.9135C26.7642 18.4803 26.3186 19 25.7362 19H25.5947C25.4816 19 25.3714 18.9622 25.2859 18.8866L22.3541 16.3829C22.1983 16.2506 21.9759 16.2317 21.8002 16.345L17.5877 18.8583C17.4376 18.9433 17.2495 18.9433 17.0994 18.8583L12.8869 16.345C12.7111 16.2317 12.4888 16.2506 12.333 16.3829L9.40112 18.8866C9.31561 18.9622 9.20541 19 9.09236 19H8.9508C8.36842 19 7.92285 18.4803 8.0112 17.9135L9.71368 6.90646C9.73268 6.78364 9.79918 6.67976 9.89799 6.60418L13.2583 4.09097ZM12.5933 14.276L13.5433 5.77274L11.1682 7.66235L9.74314 16.638L12.5933 14.276ZM14.9684 6.90646L16.3935 8.13475V16.638L14.0184 15.2208L14.9684 6.90646ZM22.0938 14.276L21.1437 5.77274L23.5188 7.66235L24.9439 16.638L22.0938 14.276ZM19.7186 6.90646L18.2936 8.13475V16.638L20.6687 15.2208L19.7186 6.90646Z"
     id="path4532"
     clip-rule="evenodd"
     fill-rule="evenodd"
     fill="#EAEEF8" />
  <path
     d="M0 18C0 16.3431 1.34315 15 3 15H17.2131C18.87 15 20.2131 16.3431 20.2131 18V23.288C20.2131 24.9448 18.87 26.288 17.2131 26.288H3C1.34314 26.288 0 24.9448 0 23.288V18Z"
     id="path4534"
     fill="#2979FF" />
  <g
     aria-label="S57"
     style="font-style:normal;font-variant:normal;font-weight:normal;font-stretch:normal;font-size:10.66666698px;line-height:1.25;font-family:sans-serif;-inkscape-font-specification:'sans-serif, Normal';font-variant-ligatures:normal;font-variant-caps:normal;font-variant-numeric:normal;font-feature-settings:normal;text-align:start;letter-spacing:0px;word-spacing:0px;writing-mode:lr-tb;text-anchor:start;fill:#ffffff;fill-opacity:1;stroke:none"
     id="text4548"
     transform="matrix(0.89547281,0,0,1,1.0844822,0)">
    <path
       d="m 6.3586875,22.33481 q 0,0.453125 -0.2135417,0.895833 -0.2083333,0.442708 -0.5885417,0.75 -0.4166667,0.333333 -0.9739583,0.520833 -0.5520834,0.1875 -1.3333334,0.1875 -0.8385417,0 -1.5104167,-0.15625 -0.6666667,-0.15625 -1.35937507,-0.463541 v -1.291667 h 0.0729167 q 0.58854167,0.489583 1.35937497,0.755208 0.7708334,0.265625 1.4479167,0.265625 0.9583334,0 1.4895834,-0.359375 0.5364584,-0.359375 0.5364584,-0.958333 0,-0.515625 -0.2552084,-0.760417 -0.25,-0.244791 -0.765625,-0.380208 Q 3.8743124,21.235851 3.415979,21.168143 2.962854,21.100435 2.4524374,20.996268 1.4211873,20.777518 0.92118731,20.251476 0.42639563,19.720226 0.42639563,18.871268 q 0,-0.973959 0.82291667,-1.59375 0.8229167,-0.625 2.0885417,-0.625 0.8177084,0 1.5000001,0.15625 0.6822917,0.15625 1.2083334,0.385416 v 1.21875 h -0.072917 q -0.4427084,-0.375 -1.1666667,-0.619791 -0.71875,-0.25 -1.4739584,-0.25 -0.828125,0 -1.3333334,0.34375 -0.5,0.34375 -0.5,0.885416 0,0.484375 0.25,0.760417 0.25,0.276042 0.8802084,0.421875 0.3333333,0.07292 0.9479167,0.177083 0.6145833,0.104167 1.0416667,0.213542 0.8645833,0.229167 1.3020834,0.692709 0.4375,0.463541 0.4375003,1.296875 z"
       style="font-style:normal;font-variant:normal;font-weight:normal;font-stretch:normal;font-size:10.66666698px;font-family:sans-serif;-inkscape-font-specification:'sans-serif, Normal';font-variant-ligatures:normal;font-variant-caps:normal;font-variant-numeric:normal;font-feature-settings:normal;text-align:start;writing-mode:lr-tb;text-anchor:start;fill:#ffffff;fill-opacity:1"
       id="path4550"
       inkscape:connector-curvature="0" />
    <path
       d="m 12.999313,22.08481 q 0,0.541666 -0.197917,1.036458 -0.197917,0.494792 -0.541667,0.833333 -0.375,0.364584 -0.895833,0.5625 -0.515625,0.192709 -1.197917,0.192709 -0.6354163,0 -1.223958,-0.135417 -0.5885417,-0.130208 -0.9947917,-0.317708 v -1.098959 h 0.072917 q 0.4270833,0.270834 1,0.463542 0.5729167,0.1875 1.1249997,0.1875 0.369792,0 0.713542,-0.104167 0.348958,-0.104166 0.619791,-0.364583 0.229167,-0.223958 0.34375,-0.536458 0.119792,-0.3125 0.119792,-0.723959 0,-0.401041 -0.140625,-0.677083 -0.135417,-0.276042 -0.380208,-0.442708 -0.270834,-0.197917 -0.661459,-0.276042 -0.385416,-0.08333 -0.8645827,-0.08333 -0.4583333,0 -0.8854167,0.0625 -0.421875,0.0625 -0.7291667,0.125 v -3.994792 h 4.6666661 v 0.911458 H 9.285771 v 2.0625 q 0.2239583,-0.02083 0.4583333,-0.03125 0.234375,-0.01042 0.4062497,-0.01042 0.630209,0 1.104167,0.109375 0.473958,0.104167 0.869792,0.375 0.416666,0.286459 0.645833,0.739584 0.229167,0.453125 0.229167,1.135417 z"
       style="font-style:normal;font-variant:normal;font-weight:normal;font-stretch:normal;font-size:10.66666698px;font-family:sans-serif;-inkscape-font-specification:'sans-serif, Normal';font-variant-ligatures:normal;font-variant-caps:normal;font-variant-numeric:normal;font-feature-settings:normal;text-align:start;writing-mode:lr-tb;text-anchor:start;fill:#ffffff;fill-opacity:1"
       id="path4552"
       inkscape:connector-curvature="0" />
    <path
       d="m 19.874313,17.954601 -3.510417,6.59375 h -1.114583 l 3.734375,-6.84375 h -4.416667 v -0.911458 h 5.307292 z"
       style="font-style:normal;font-variant:normal;font-weight:normal;font-stretch:normal;font-size:10.66666698px;font-family:sans-serif;-inkscape-font-specification:'sans-serif, Normal';font-variant-ligatures:normal;font-variant-caps:normal;font-variant-numeric:normal;font-feature-settings:normal;text-align:start;writing-mode:lr-tb;text-anchor:start;fill:#ffffff;fill-opacity:1"
       id="path4554"
       inkscape:connector-curvature="0" />
  </g>
</svg>
